<svg width="1280" height="640" viewBox="0 0 1280 640" fill="none" xmlns="http://www.w3.org/2000/svg" role="img" aria-labelledby="title desc">
  <title id="title">Job Hunt Copilot cover image</title>
  <desc id="desc">A cover image for a self-improving resume system for product managers.</desc>
  <defs>
    <linearGradient id="bg" x1="0" y1="0" x2="1280" y2="640" gradientUnits="userSpaceOnUse">
      <stop stop-color="#06111f"/>
      <stop offset="0.55" stop-color="#081a2a"/>
      <stop offset="1" stop-color="#050914"/>
    </linearGradient>
    <linearGradient id="cyan" x1="94" y1="250" x2="505" y2="250" gradientUnits="userSpaceOnUse">
      <stop stop-color="#55f0f4"/>
      <stop offset="1" stop-color="#15b6c8"/>
    </linearGradient>
    <linearGradient id="amber" x1="0" y1="0" x2="1" y2="1">
      <stop stop-color="#ffd166"/>
      <stop offset="1" stop-color="#f59f00"/>
    </linearGradient>
    <filter id="softGlow" x="-35%" y="-35%" width="170%" height="170%" color-interpolation-filters="sRGB">
      <feGaussianBlur stdDeviation="10" result="blur"/>
      <feColorMatrix in="blur" type="matrix" values="0 0 0 0 0.1 0 0 0 0 0.86 0 0 0 0 0.9 0 0 0 0.65 0"/>
      <feMerge>
        <feMergeNode/>
        <feMergeNode in="SourceGraphic"/>
      </feMerge>
    </filter>
    <pattern id="grid" width="48" height="48" patternUnits="userSpaceOnUse">
      <path d="M48 0H0V48" stroke="#1c4258" stroke-width="1" opacity="0.22"/>
    </pattern>
  </defs>

  <rect width="1280" height="640" fill="url(#bg)"/>
  <rect width="1280" height="640" fill="url(#grid)"/>
  <path d="M0 520C120 456 214 622 340 558C483 485 574 568 703 521C842 470 917 365 1046 425C1145 471 1197 428 1280 360V640H0V520Z" fill="#082438" opacity="0.48"/>
  <path d="M0 556C148 492 218 605 351 556C492 504 579 548 721 487C874 421 944 390 1088 433C1165 456 1223 428 1280 394" stroke="#19c4d1" stroke-width="2" opacity="0.32"/>
  <path d="M0 590C146 526 243 609 371 568C522 520 632 578 770 491C878 423 982 398 1102 444C1177 473 1222 457 1280 420" stroke="#2e7dd6" stroke-width="1.5" opacity="0.28"/>

  <g transform="translate(72 124)">
    <text x="0" y="58" fill="#f7fbff" font-family="Inter, ui-sans-serif, system-ui, -apple-system, BlinkMacSystemFont, Segoe UI, sans-serif" font-size="78" font-weight="800" letter-spacing="0">Job Hunt</text>
    <text x="0" y="156" fill="url(#cyan)" font-family="Inter, ui-sans-serif, system-ui, -apple-system, BlinkMacSystemFont, Segoe UI, sans-serif" font-size="88" font-weight="900" letter-spacing="0">Copilot</text>
    <rect x="2" y="190" width="404" height="3" rx="1.5" fill="#23d3df" opacity="0.8" filter="url(#softGlow)"/>
    <text x="0" y="250" fill="#dbe7f3" font-family="Inter, ui-sans-serif, system-ui, -apple-system, BlinkMacSystemFont, Segoe UI, sans-serif" font-size="31" font-weight="500" letter-spacing="0">A self-improving resume system</text>
    <text x="0" y="294" fill="#dbe7f3" font-family="Inter, ui-sans-serif, system-ui, -apple-system, BlinkMacSystemFont, Segoe UI, sans-serif" font-size="31" font-weight="500" letter-spacing="0">for product managers</text>
  </g>

  <g transform="translate(525 72)">
    <rect x="0" y="0" width="315" height="318" rx="18" fill="#0a1d2d" stroke="#3f6278" stroke-width="1.4"/>
    <text x="34" y="44" fill="#4deaf0" font-family="Inter, ui-sans-serif, system-ui, sans-serif" font-size="17" font-weight="800">RESUME</text>
    <rect x="34" y="70" width="183" height="208" rx="8" fill="#f7fbff"/>
    <rect x="52" y="94" width="92" height="13" rx="4" fill="#142033"/>
    <rect x="52" y="123" width="68" height="5" rx="2.5" fill="#2dcdd5"/>
    <rect x="52" y="141" width="128" height="7" rx="3.5" fill="#ccd7df"/>
    <rect x="52" y="162" width="88" height="7" rx="3.5" fill="#ccd7df"/>
    <rect x="52" y="180" width="116" height="7" rx="3.5" fill="#ccd7df"/>
    <rect x="52" y="198" width="142" height="7" rx="3.5" fill="#ccd7df"/>
    <text x="52" y="231" fill="#187a88" font-family="Inter, ui-sans-serif, system-ui, sans-serif" font-size="10" font-weight="800">IMPACT HIGHLIGHTS</text>
    <rect x="52" y="245" width="130" height="6" rx="3" fill="#cfd9e1"/>
    <rect x="52" y="260" width="154" height="6" rx="3" fill="#cfd9e1"/>
    <rect x="52" y="286" width="36" height="10" rx="5" fill="#27c0c8"/>
    <rect x="94" y="286" width="36" height="10" rx="5" fill="#27c0c8"/>
    <rect x="136" y="286" width="36" height="10" rx="5" fill="#27c0c8"/>

    <path d="M218 112H284" stroke="#36dbe4" stroke-width="1.5" stroke-dasharray="4 5"/>
    <path d="M218 172H284" stroke="#36dbe4" stroke-width="1.5" stroke-dasharray="4 5"/>
    <path d="M218 232H284" stroke="#36dbe4" stroke-width="1.5" stroke-dasharray="4 5"/>
    <rect x="250" y="91" width="94" height="44" rx="7" fill="#0b263a" stroke="#245a74"/>
    <rect x="250" y="151" width="94" height="44" rx="7" fill="#0b263a" stroke="#245a74"/>
    <rect x="250" y="211" width="94" height="44" rx="7" fill="#0b263a" stroke="#245a74"/>
    <text x="262" y="117" fill="#f3f8fb" font-family="Inter, ui-sans-serif, system-ui, sans-serif" font-size="12">Tailored</text>
    <text x="262" y="177" fill="#f3f8fb" font-family="Inter, ui-sans-serif, system-ui, sans-serif" font-size="12">Quantified</text>
    <text x="262" y="237" fill="#f3f8fb" font-family="Inter, ui-sans-serif, system-ui, sans-serif" font-size="12">Right keywords</text>
  </g>

  <g transform="translate(837 181)">
    <circle cx="150" cy="150" r="115" stroke="#e8f2fa" stroke-width="3" opacity="0.76"/>
    <path d="M230 57L244 48L239 64Z" fill="#e8f2fa"/>
    <path d="M68 247L56 259L53 241Z" fill="#e8f2fa"/>
    <circle cx="150" cy="150" r="72" fill="#092235" stroke="#1a6379"/>
    <path d="M150 95C123 95 104 113 104 138C104 160 118 177 139 183V207H161V183C182 177 196 160 196 138C196 113 177 95 150 95Z" stroke="#42e4ec" stroke-width="3" fill="none"/>
    <path d="M150 118V198M119 145H181M128 123L172 167M172 123L128 167" stroke="#42e4ec" stroke-width="2" opacity="0.82"/>
    <circle cx="128" cy="123" r="4" fill="#42e4ec"/>
    <circle cx="172" cy="123" r="4" fill="#42e4ec"/>
    <circle cx="119" cy="145" r="4" fill="#42e4ec"/>
    <circle cx="181" cy="145" r="4" fill="#42e4ec"/>
    <text x="105" y="245" fill="#4deaf0" font-family="Inter, ui-sans-serif, system-ui, sans-serif" font-size="17" font-weight="850">AI COPILOT</text>
    <text x="89" y="270" fill="#cbd7e2" font-family="Inter, ui-sans-serif, system-ui, sans-serif" font-size="13">Learns. Adapts. Improves.</text>
    <text x="24" y="34" fill="#4deaf0" font-family="Inter, ui-sans-serif, system-ui, sans-serif" font-size="15" font-weight="850">ANALYZE</text>
    <text x="249" y="205" fill="#ffd166" font-family="Inter, ui-sans-serif, system-ui, sans-serif" font-size="15" font-weight="850">APPLY</text>
    <text x="20" y="322" fill="#ffd166" font-family="Inter, ui-sans-serif, system-ui, sans-serif" font-size="15" font-weight="850">LEARN</text>
  </g>

  <g transform="translate(962 84)">
    <rect x="0" y="0" width="266" height="236" rx="16" fill="#0a1d2d" stroke="#334d63" stroke-width="1.3"/>
    <text x="28" y="40" fill="#4deaf0" font-family="Inter, ui-sans-serif, system-ui, sans-serif" font-size="16" font-weight="850">KEYWORD LEDGER</text>
    <text x="30" y="80" fill="#8fa2b2" font-family="Inter, ui-sans-serif, system-ui, sans-serif" font-size="10">SIGNAL</text>
    <text x="140" y="80" fill="#8fa2b2" font-family="Inter, ui-sans-serif, system-ui, sans-serif" font-size="10">TREND</text>
    <text x="208" y="80" fill="#8fa2b2" font-family="Inter, ui-sans-serif, system-ui, sans-serif" font-size="10">USE</text>
    <path d="M28 92H238" stroke="#263f50"/>
    <text x="30" y="120" fill="#f4f9fc" font-family="Inter, ui-sans-serif, system-ui, sans-serif" font-size="13">Strategy</text>
    <text x="30" y="154" fill="#f4f9fc" font-family="Inter, ui-sans-serif, system-ui, sans-serif" font-size="13">Roadmaps</text>
    <text x="30" y="188" fill="#f4f9fc" font-family="Inter, ui-sans-serif, system-ui, sans-serif" font-size="13">Analytics</text>
    <path d="M142 118L154 108L166 118L178 104L190 112" stroke="#2bdbe4" stroke-width="2"/>
    <path d="M142 152L154 140L166 151L178 137L190 144" stroke="#2bdbe4" stroke-width="2"/>
    <path d="M142 186L154 174L166 181L178 168L190 176" stroke="#2bdbe4" stroke-width="2"/>
    <text x="211" y="120" fill="#f4f9fc" font-family="Inter, ui-sans-serif, system-ui, sans-serif" font-size="13">12</text>
    <text x="214" y="154" fill="#f4f9fc" font-family="Inter, ui-sans-serif, system-ui, sans-serif" font-size="13">9</text>
    <text x="211" y="188" fill="#f4f9fc" font-family="Inter, ui-sans-serif, system-ui, sans-serif" font-size="13">14</text>
  </g>

  <g transform="translate(964 383)">
    <rect x="0" y="0" width="268" height="187" rx="16" fill="#0a1d2d" stroke="#6c5524" stroke-width="1.3"/>
    <text x="28" y="42" fill="#ffd166" font-family="Inter, ui-sans-serif, system-ui, sans-serif" font-size="16" font-weight="850">APPLICATION TRACKER</text>
    <text x="28" y="82" fill="#8fa2b2" font-family="Inter, ui-sans-serif, system-ui, sans-serif" font-size="10">ROLE</text>
    <text x="116" y="82" fill="#8fa2b2" font-family="Inter, ui-sans-serif, system-ui, sans-serif" font-size="10">STAGE</text>
    <text x="190" y="82" fill="#8fa2b2" font-family="Inter, ui-sans-serif, system-ui, sans-serif" font-size="10">FIT</text>
    <path d="M28 94H240" stroke="#263f50"/>
    <text x="28" y="120" fill="#f4f9fc" font-family="Inter, ui-sans-serif, system-ui, sans-serif" font-size="12">Senior PM</text>
    <text x="116" y="120" fill="#f4f9fc" font-family="Inter, ui-sans-serif, system-ui, sans-serif" font-size="12">Interview</text>
    <rect x="190" y="110" width="42" height="8" rx="4" fill="#24404a"/>
    <rect x="190" y="110" width="35" height="8" rx="4" fill="#2bdbe4"/>
    <text x="28" y="150" fill="#f4f9fc" font-family="Inter, ui-sans-serif, system-ui, sans-serif" font-size="12">Product Lead</text>
    <text x="116" y="150" fill="#f4f9fc" font-family="Inter, ui-sans-serif, system-ui, sans-serif" font-size="12">Applied</text>
    <rect x="190" y="140" width="42" height="8" rx="4" fill="#24404a"/>
    <rect x="190" y="140" width="28" height="8" rx="4" fill="#ffd166"/>
  </g>

  <g transform="translate(522 423)">
    <rect x="0" y="0" width="288" height="137" rx="16" fill="#0a1d2d" stroke="#6c5524" stroke-width="1.3"/>
    <text x="48" y="40" fill="#ffd166" font-family="Inter, ui-sans-serif, system-ui, sans-serif" font-size="16" font-weight="850">INSIGHTS</text>
    <circle cx="30" cy="35" r="12" stroke="#ffd166" stroke-width="2"/>
    <path d="M30 42V28M30 28L24 34M30 28L36 34" stroke="#ffd166" stroke-width="2"/>
    <text x="30" y="76" fill="#f4f9fc" font-family="Inter, ui-sans-serif, system-ui, sans-serif" font-size="13">Resume conversion rate improved</text>
    <text x="30" y="101" fill="#f4f9fc" font-family="Inter, ui-sans-serif, system-ui, sans-serif" font-size="13">Lead with quantified outcomes</text>
  </g>
</svg>
